HIERARCHY
ROOT Hips
{
 OFFSET 0.000000 0.000000 0.000000
 CHANNELS 6 Xposition Yposition Zposition Yrotation Xrotation Zrotation
 JOINT Chest
 {
  OFFSET 0.000000 9.588913 -0.003946
  CHANNELS 3 Yrotation Xrotation Zrotation
  JOINT Chest2
  {
   OFFSET 0.000000 9.541882 0.008053
   CHANNELS 3 Yrotation Xrotation Zrotation
   JOINT Chest3
   {
    OFFSET 0.000000 9.501360 0.000000
    CHANNELS 3 Yrotation Xrotation Zrotation
    JOINT Chest4
    {
     OFFSET 0.000000 9.491660 0.000000
     CHANNELS 3 Yrotation Xrotation Zrotation
     JOINT Neck
     {
      OFFSET 0.000000 14.331917 0.000000
      CHANNELS 3 Yrotation Xrotation Zrotation
      JOINT Head
      {
       OFFSET 0.000000 8.884799 0.017034
       CHANNELS 3 Yrotation Xrotation Zrotation
       End Site
       {
        OFFSET 0.000000 16.896195 0.008993
       }
      }
     }
     JOINT RightCollar
     {
      OFFSET -2.923010 9.499495 0.000000
      CHANNELS 3 Yrotation Xrotation Zrotation
      JOINT RightShoulder
      {
       OFFSET -13.795216 0.000000 0.000000
       CHANNELS 3 Yrotation Xrotation Zrotation
       JOINT RightElbow
       {
        OFFSET -30.272209 0.000000 0.000000
        CHANNELS 3 Yrotation Xrotation Zrotation
        JOINT RightWrist
        {
         OFFSET -24.478199 0.000000 0.000000
         CHANNELS 3 Yrotation Xrotation Zrotation
         End Site
         {
          OFFSET -18.090752 0.000000 0.000000
         }
        }
       }
      }
     }
     JOINT LeftCollar
     {
      OFFSET 2.923010 9.499495 0.000000
      CHANNELS 3 Yrotation Xrotation Zrotation
      JOINT LeftShoulder
      {
       OFFSET 13.795216 0.000000 0.000000
       CHANNELS 3 Yrotation Xrotation Zrotation
       JOINT LeftElbow
       {
        OFFSET 30.272209 0.000000 0.000000
        CHANNELS 3 Yrotation Xrotation Zrotation
        JOINT LeftWrist
        {
         OFFSET 24.478199 0.000000 0.000000
         CHANNELS 3 Yrotation Xrotation Zrotation
         End Site
         {
          OFFSET 18.090752 0.000000 0.000000
         }
        }
       }
      }
     }
    }
   }
  }
 }
 JOINT RightHip
 {
  OFFSET -7.826875 0.019532 0.001973
  CHANNELS 3 Yrotation Xrotation Zrotation
  JOINT RightKnee
  {
   OFFSET 0.000000 -40.546152 -0.001885
   CHANNELS 3 Yrotation Xrotation Zrotation
   JOINT RightAnkle
   {
    OFFSET 0.000000 -39.417092 -0.003189
    CHANNELS 3 Yrotation Xrotation Zrotation
    JOINT RightToe
    {
     OFFSET 0.000000 -7.579396 17.243563
     CHANNELS 3 Yrotation Xrotation Zrotation
     End Site
     {
      OFFSET 0.000000 -1.500329 6.694466
     }
    }
   }
  }
 }
 JOINT LeftHip
 {
  OFFSET 7.826875 0.019532 0.001973
  CHANNELS 3 Yrotation Xrotation Zrotation
  JOINT LeftKnee
  {
   OFFSET 0.000000 -40.546152 -0.001885
   CHANNELS 3 Yrotation Xrotation Zrotation
   JOINT LeftAnkle
   {
    OFFSET 0.000000 -39.417092 -0.003189
    CHANNELS 3 Yrotation Xrotation Zrotation
    JOINT LeftToe
    {
     OFFSET 0.000000 -7.579396 17.243563
     CHANNELS 3 Yrotation Xrotation Zrotation
     End Site
     {
      OFFSET 0.000000 -1.500329 6.694466
     }
    }
   }
  }
 }
}
MOTION
Frames: 5
Frame Time: 0.008333
68.558198 88.510408 -79.047078 143.278767 -10.283369 1.563083 -0.119768 3.696134 -0.256200 -0.077701 2.067007 0.165361 -0.096209 2.583794 0.206296 -0.077701 2.067008 0.165361 -3.178802 42.298130 1.215300 -4.003160 26.019345 2.079706 -2.566518 1.828964 -1.532696 -5.425143 0.378635 87.874080 20.768020 0.031316 9.443596 -0.606679 -3.201794 0.279878 0.035017 0.455694 -2.888758 5.173394 -0.117501 -85.222848 -7.610496 0.016799 -8.910739 1.380308 4.120440 2.524040 -8.208837 -2.693191 -8.104039 2.640417 8.321387 -1.000648 4.295785 4.703338 4.488864 0.179895 -0.583086 0.022383 5.759495 15.268862 -0.837825 3.063657 7.556377 1.759036 2.641179 -9.846164 -1.770115 -0.063509 1.022443 -0.118833
68.362577 88.493561 -78.985740 143.291083 -10.320334 1.619150 -0.116419 3.690561 -0.310509 -0.073825 2.062089 0.149314 -0.091455 2.577641 0.186257 -0.073825 2.062089 0.149314 -3.195877 42.274516 1.220872 -4.024119 25.982384 2.089806 -2.598670 1.809734 -1.506654 -5.443998 0.419166 87.890190 20.673195 0.138642 9.406221 -0.669160 -3.195150 0.290873 0.044604 0.441852 -2.867351 5.159008 -0.096726 -85.239654 -7.523570 0.083612 -8.813938 1.461181 4.163656 2.529389 -8.205761 -2.764100 -8.222236 2.625708 8.271534 -1.024823 4.312845 4.822803 4.597143 0.185828 -0.608288 0.019257 5.710238 15.349190 -0.977156 3.063431 7.277863 1.677380 2.636236 -9.748501 -1.577573 -0.066331 1.040117 -0.121352
68.168620 88.477099 -78.923150 143.302352 -10.357681 1.676208 -0.111091 3.684849 -0.364873 -0.068561 2.057005 0.133776 -0.084964 2.571280 0.166863 -0.068561 2.057005 0.133776 -3.216573 42.251972 1.224416 -4.048971 25.947303 2.098241 -2.630384 1.791860 -1.478451 -5.460114 0.453698 87.900481 20.575773 0.242078 9.369397 -0.710293 -3.188457 0.291010 0.057340 0.430259 -2.853728 5.139975 -0.084566 -85.252171 -7.444557 0.161357 -8.720634 1.529402 4.203583 2.529556 -8.198541 -2.835729 -8.338434 2.612668 8.224478 -1.050380 4.328939 4.943100 4.703888 0.192296 -0.635900 0.017937 5.656117 15.435429 -1.117680 3.076539 6.985917 1.600197 2.619925 -9.638167 -1.397209 -0.070132 1.056323 -0.117101
67.976307 88.461310 -78.860038 143.306686 -10.396460 1.734739 -0.100843 3.680202 -0.417964 -0.060628 2.052183 0.118138 -0.075135 2.565248 0.147356 -0.060628 2.052183 0.118138 -3.238191 42.230767 1.227922 -4.074928 25.914465 2.106817 -2.662419 1.776568 -1.447695 -5.478982 0.479285 87.912391 20.471585 0.338785 9.328764 -0.724033 -3.183165 0.281739 0.075118 0.421194 -2.844708 5.107936 -0.083199 -85.262823 -7.368605 0.246253 -8.628275 1.582590 4.237124 2.524058 -8.181969 -2.909384 -8.451767 2.596993 8.184488 -1.078548 4.347209 5.064444 4.809011 0.198359 -0.666818 0.018015 5.603018 15.530416 -1.258452 3.101979 6.679138 1.525652 2.595364 -9.513886 -1.230632 -0.073296 1.069734 -0.105486
67.785607 88.446257 -78.796601 143.299150 -10.435338 1.793777 -0.084277 3.675217 -0.468721 -0.049526 2.046944 0.101867 -0.061348 2.558694 0.127078 -0.049526 2.046945 0.101867 -3.259887 42.211394 1.233980 -4.101535 25.884741 2.118422 -2.694274 1.766305 -1.415690 -5.504900 0.494596 87.933184 20.357630 0.433752 9.281384 -0.714792 -3.187034 0.270695 0.097591 0.418291 -2.836078 5.064278 -0.092900 -85.273408 -7.294020 0.329956 -8.537886 1.621612 4.271743 2.512994 -8.147458 -2.985675 -8.562265 2.579047 8.151109 -1.105388 4.363961 5.188735 4.911027 0.204025 -0.701159 0.019221 5.555857 15.632921 -1.397200 3.135120 6.358775 1.448579 2.573055 -9.376911 -1.071710 -0.075291 1.079914 -0.090555
